<svg xmlns="http://www.w3.org/2000/svg" viewBox="0 0 620 640"><rect width="620" height="640" fill="#153653"/><rect x="42" y="42" width="56" height="56" fill="#6ddbea"/><rect x="154" y="42" width="56" height="56" fill="#6ddbea"/><rect x="266" y="42" width="56" height="56" fill="#f38d9f"/><rect x="378" y="42" width="56" height="56" fill="#6ddbea"/><path d="M518 38L550 98H486Z" fill="#6ddbea"/><rect x="42" y="142" width="56" height="56" fill="#f38d9f"/><path d="M182 138L214 198H150Z" fill="#6ddbea"/><circle cx="294" cy="170" r="28" fill="#6ddbea"/><path d="M406 138L438 198H374Z" fill="#6ddbea"/><path d="M518 138L550 198H486Z" fill="#6ddbea"/><circle cx="70" cy="270" r="28" fill="#f38d9f"/><path d="M182 238L214 298H150Z" fill="#ffd85b"/><path d="M294 238L326 298H262Z" fill="#ffd85b"/><path d="M406 238L438 298H374Z" fill="#ffd85b"/><circle cx="518" cy="270" r="28" fill="#f38d9f"/><rect x="42" y="342" width="56" height="56" fill="#ffd85b"/><path d="M182 338L214 398H150Z" fill="#f38d9f"/><rect x="266" y="342" width="56" height="56" fill="#ffd85b"/><path d="M406 338L438 398H374Z" fill="#f38d9f"/><rect x="490" y="342" width="56" height="56" fill="#ffd85b"/></svg>