<svg xmlns="http://www.w3.org/2000/svg" viewBox="0 0 620 640"><rect width="620" height="640" fill="#153653"/><circle cx="70" cy="70" r="28" fill="#f38d9f"/><path d="M182 38L214 98H150Z" fill="#f38d9f"/><circle cx="294" cy="70" r="28" fill="#f38d9f"/><rect x="378" y="42" width="56" height="56" fill="#f38d9f"/><path d="M518 38L550 98H486Z" fill="#6ddbea"/><circle cx="70" cy="170" r="28" fill="#f38d9f"/><circle cx="182" cy="170" r="28" fill="#ffd85b"/><rect x="266" y="142" width="56" height="56" fill="#6ddbea"/><circle cx="406" cy="170" r="28" fill="#ffd85b"/><circle cx="518" cy="170" r="28" fill="#6ddbea"/><circle cx="70" cy="270" r="28" fill="#ffd85b"/><rect x="154" y="242" width="56" height="56" fill="#ffd85b"/><circle cx="294" cy="270" r="28" fill="#6ddbea"/><rect x="378" y="242" width="56" height="56" fill="#f38d9f"/><circle cx="518" cy="270" r="28" fill="#6ddbea"/><circle cx="70" cy="370" r="28" fill="#ffd85b"/><rect x="154" y="342" width="56" height="56" fill="#6ddbea"/><circle cx="294" cy="370" r="28" fill="#ffd85b"/><path d="M406 338L438 398H374Z" fill="#6ddbea"/><circle cx="518" cy="370" r="28" fill="#ffd85b"/><path d="M70 438L102 498H38Z" fill="#6ddbea"/><rect x="154" y="442" width="56" height="56" fill="#f38d9f"/><path d="M294 438L326 498H262Z" fill="#6ddbea"/><rect x="378" y="442" width="56" height="56" fill="#6ddbea"/><path d="M518 438L550 498H486Z" fill="#ffd85b"/><rect x="42" y="542" width="56" height="56" fill="#6ddbea"/><path d="M182 538L214 598H150Z" fill="#f38d9f"/><circle cx="294" cy="570" r="28" fill="#f38d9f"/><rect x="378" y="542" width="56" height="56" fill="#ffd85b"/><path d="M518 538L550 598H486Z" fill="#6ddbea"/></svg>